<mxfile host="65bd71144e">
    <diagram id="KjrErTVRP9iZeqJHBAPl" name="Page-1">
        <mxGraphModel dx="834" dy="529" grid="1" gridSize="10" guides="1" tooltips="1" connect="1" arrows="1" fold="1" page="1" pageScale="1" pageWidth="850" pageHeight="1100" math="0" shadow="0">
            <root>
                <mxCell id="0"/>
                <mxCell id="1" parent="0"/>
                <mxCell id="86" style="edgeStyle=none;html=1;exitX=0;exitY=0.5;exitDx=0;exitDy=0;entryX=1;entryY=0.5;entryDx=0;entryDy=0;entryPerimeter=0;endArrow=none;endFill=0;" parent="1" source="2" target="80" edge="1">
                    <mxGeometry relative="1" as="geometry">
                        <Array as="points">
                            <mxPoint x="560" y="434"/>
                        </Array>
                    </mxGeometry>
                </mxCell>
                <mxCell id="87" style="edgeStyle=none;html=1;exitX=1;exitY=0.5;exitDx=0;exitDy=0;entryX=1;entryY=0.115;entryDx=0;entryDy=0;entryPerimeter=0;endArrow=none;endFill=0;fillColor=#f8cecc;strokeColor=#b85450;" parent="1" source="2" target="64" edge="1">
                    <mxGeometry relative="1" as="geometry">
                        <Array as="points">
                            <mxPoint x="485" y="206"/>
                            <mxPoint x="455" y="206"/>
                        </Array>
                    </mxGeometry>
                </mxCell>
                <mxCell id="2" value="" style="pointerEvents=1;verticalLabelPosition=bottom;shadow=0;dashed=0;align=center;html=1;verticalAlign=top;shape=mxgraph.electrical.miscellaneous.batteryStack;flipH=0;flipV=0;rotation=-90;" parent="1" vertex="1">
                    <mxGeometry x="510" y="226" width="100" height="60" as="geometry"/>
                </mxCell>
                <mxCell id="81" style="edgeStyle=none;html=1;exitX=1;exitY=0.57;exitDx=0;exitDy=0;exitPerimeter=0;entryX=0;entryY=0.5;entryDx=0;entryDy=0;entryPerimeter=0;endArrow=none;endFill=0;" parent="1" source="4" target="80" edge="1">
                    <mxGeometry relative="1" as="geometry"/>
                </mxCell>
                <mxCell id="4" value="" style="verticalLabelPosition=bottom;shadow=0;dashed=0;align=center;html=1;verticalAlign=top;shape=mxgraph.electrical.opto_electronics.led_2;pointerEvents=1;direction=south;rotation=-90;" parent="1" vertex="1">
                    <mxGeometry x="310" y="384.01" width="70" height="100" as="geometry"/>
                </mxCell>
                <mxCell id="17" value="+" style="text;html=1;align=center;verticalAlign=middle;resizable=0;points=[];autosize=1;strokeColor=none;fillColor=none;" parent="1" vertex="1">
                    <mxGeometry x="580" y="206" width="20" height="20" as="geometry"/>
                </mxCell>
                <mxCell id="18" value="-" style="text;html=1;align=center;verticalAlign=middle;resizable=0;points=[];autosize=1;strokeColor=none;fillColor=none;" parent="1" vertex="1">
                    <mxGeometry x="570" y="293" width="20" height="20" as="geometry"/>
                </mxCell>
                <mxCell id="22" value="LED1&lt;br&gt;" style="text;html=1;align=center;verticalAlign=middle;resizable=0;points=[];autosize=1;strokeColor=none;fillColor=none;" parent="1" vertex="1">
                    <mxGeometry x="330" y="471.65" width="50" height="20" as="geometry"/>
                </mxCell>
                <mxCell id="23" value="5V" style="text;html=1;align=center;verticalAlign=middle;resizable=0;points=[];autosize=1;strokeColor=none;fillColor=none;" parent="1" vertex="1">
                    <mxGeometry x="600" y="246" width="30" height="20" as="geometry"/>
                </mxCell>
                <mxCell id="24" value="Cole Porter - TEJ3M - Unit #4-14" style="text;html=1;align=center;verticalAlign=middle;resizable=0;points=[];autosize=1;strokeColor=none;fillColor=none;" parent="1" vertex="1">
                    <mxGeometry x="250" y="530" width="190" height="20" as="geometry"/>
                </mxCell>
                <mxCell id="30" value="220 Î©&amp;nbsp;" style="text;html=1;align=center;verticalAlign=middle;resizable=0;points=[];autosize=1;strokeColor=none;fillColor=none;" parent="1" vertex="1">
                    <mxGeometry x="440" y="404.01" width="50" height="20" as="geometry"/>
                </mxCell>
                <mxCell id="40" value="INPUT A" style="text;html=1;align=center;verticalAlign=middle;resizable=0;points=[];autosize=1;strokeColor=none;fillColor=none;" parent="1" vertex="1">
                    <mxGeometry x="395" y="173" width="60" height="20" as="geometry"/>
                </mxCell>
                <mxCell id="92" style="edgeStyle=none;html=1;exitX=0;exitY=0.885;exitDx=0;exitDy=0;exitPerimeter=0;entryX=0;entryY=0.25;entryDx=0;entryDy=0;entryPerimeter=0;fillColor=#f5f5f5;strokeColor=#666666;endArrow=none;endFill=0;" parent="1" source="64" edge="1">
                    <mxGeometry relative="1" as="geometry">
                        <mxPoint x="340" y="221" as="targetPoint"/>
                    </mxGeometry>
                </mxCell>
                <mxCell id="64" value="" style="pointerEvents=1;verticalLabelPosition=bottom;shadow=0;dashed=0;align=center;html=1;verticalAlign=top;shape=mxgraph.electrical.electro-mechanical.2-way_switch;rotation=-180;flipH=1;flipV=1;" parent="1" vertex="1">
                    <mxGeometry x="360" y="185" width="95" height="36" as="geometry"/>
                </mxCell>
                <mxCell id="65" style="edgeStyle=none;html=1;exitX=0;exitY=0.885;exitDx=0;exitDy=0;exitPerimeter=0;entryX=0.095;entryY=0.869;entryDx=0;entryDy=0;entryPerimeter=0;endArrow=none;endFill=0;" parent="1" source="64" target="64" edge="1">
                    <mxGeometry relative="1" as="geometry"/>
                </mxCell>
                <mxCell id="96" style="edgeStyle=none;html=1;entryX=1;entryY=0.885;entryDx=0;entryDy=0;entryPerimeter=0;endArrow=none;endFill=0;" parent="1" source="80" target="91" edge="1">
                    <mxGeometry relative="1" as="geometry">
                        <Array as="points">
                            <mxPoint x="520" y="434"/>
                            <mxPoint x="520" y="345"/>
                        </Array>
                    </mxGeometry>
                </mxCell>
                <mxCell id="80" value="" style="pointerEvents=1;verticalLabelPosition=bottom;shadow=0;dashed=0;align=center;html=1;verticalAlign=top;shape=mxgraph.electrical.resistors.resistor_1;" parent="1" vertex="1">
                    <mxGeometry x="410" y="424.01" width="100" height="20" as="geometry"/>
                </mxCell>
                <mxCell id="93" style="edgeStyle=none;html=1;exitX=1;exitY=0.115;exitDx=0;exitDy=0;exitPerimeter=0;endArrow=none;endFill=0;" parent="1" source="91" edge="1">
                    <mxGeometry relative="1" as="geometry">
                        <mxPoint x="490" y="210" as="targetPoint"/>
                        <Array as="points">
                            <mxPoint x="490" y="317"/>
                        </Array>
                    </mxGeometry>
                </mxCell>
                <mxCell id="95" style="edgeStyle=none;html=1;exitX=1;exitY=0.885;exitDx=0;exitDy=0;exitPerimeter=0;endArrow=none;endFill=0;entryX=1;entryY=0.885;entryDx=0;entryDy=0;entryPerimeter=0;fillColor=#f8cecc;strokeColor=#b85450;" parent="1" source="91" target="64" edge="1">
                    <mxGeometry relative="1" as="geometry">
                        <mxPoint x="510" y="210" as="targetPoint"/>
                        <Array as="points">
                            <mxPoint x="510" y="345"/>
                            <mxPoint x="510" y="250"/>
                            <mxPoint x="455" y="240"/>
                        </Array>
                    </mxGeometry>
                </mxCell>
                <mxCell id="97" style="edgeStyle=none;html=1;exitX=0;exitY=0.885;exitDx=0;exitDy=0;exitPerimeter=0;entryX=0;entryY=0.75;entryDx=0;entryDy=0;entryPerimeter=0;endArrow=none;endFill=0;" parent="1" source="91" edge="1">
                    <mxGeometry relative="1" as="geometry">
                        <Array as="points">
                            <mxPoint x="350" y="345"/>
                            <mxPoint x="350" y="251"/>
                        </Array>
                        <mxPoint x="340" y="251" as="targetPoint"/>
                    </mxGeometry>
                </mxCell>
                <mxCell id="91" value="" style="pointerEvents=1;verticalLabelPosition=bottom;shadow=0;dashed=0;align=center;html=1;verticalAlign=top;shape=mxgraph.electrical.electro-mechanical.2-way_switch;rotation=-180;flipH=1;flipV=1;" parent="1" vertex="1">
                    <mxGeometry x="370" y="313" width="95" height="36" as="geometry"/>
                </mxCell>
                <mxCell id="99" value="" style="verticalLabelPosition=bottom;shadow=0;dashed=0;align=center;html=1;verticalAlign=top;shape=mxgraph.electrical.logic_gates.logic_gate;operation=or;flipH=1;" parent="1" vertex="1">
                    <mxGeometry x="240" y="206" width="100" height="60" as="geometry"/>
                </mxCell>
                <mxCell id="103" style="edgeStyle=none;html=1;exitX=1;exitY=0.5;exitDx=0;exitDy=0;exitPerimeter=0;endArrow=none;endFill=0;" parent="1" source="102" edge="1">
                    <mxGeometry relative="1" as="geometry">
                        <mxPoint x="290" y="440" as="targetPoint"/>
                        <Array as="points">
                            <mxPoint x="140" y="440"/>
                        </Array>
                    </mxGeometry>
                </mxCell>
                <mxCell id="102" value="" style="verticalLabelPosition=bottom;shadow=0;dashed=0;align=center;html=1;verticalAlign=top;shape=mxgraph.electrical.logic_gates.inverter_2;direction=west;" parent="1" vertex="1">
                    <mxGeometry x="140" y="206" width="100" height="60" as="geometry"/>
                </mxCell>
                <mxCell id="104" value="" style="shape=image;verticalLabelPosition=bottom;labelBackgroundColor=#ffffff;verticalAlign=top;aspect=fixed;imageAspect=0;image=data:image/png,iVBORw0KGgoAAAANSUhEUgAAANcAAADACAIAAAAYzGHBAAAgAElEQVR4nO2deXAU55n/+5j7vm+NRjM6RgcSl9CBAIOxZcAYDNmwYY2N8War1tk4rq2NsxviTVU2la3KprLrxLWxt3aTMsZJwAHkGMvc4RCDhEACCd0SI41GGs1o7pmeu7t/f7y7U/qJw+hsifTnL/Vopvvtt7/9Xv3094FJkoRoaCgFoboANDS0CmmWALQKaaiH8ah/fOMb31jMctD8ufHmm29u2LAB/A0/anYCw/CuXbvy8/MXsWA0fxYkk8lPPvnkvffeO3DgAPjkkW0hBEEHDx7cvXv3ohSM5s+IcDh8/vz5qZ/Q40Ia6qFVSEM9tAppqIdWIQ310CqkoR5ahTTUQ6uQhnpoFdJQz+NWrb8Sv9/vcDiCwWBZWZlUKkVRlCAIDMPu378vkUh0Oh2TyYQgKBwO9/b2Dg4Ogl8VFhaazWaZTAY2x8bGhoaGnE5ndrcsFkuhUFRUVAiFQgZjeglJkkylUr29vQ6HIxKJQBCEIEh5ebnRaBQIBI8pbTgcHh0d5fF4arWax+PN5cQBBEGMj48Hg0GNRsNkMkdHR7lcbk5ODgzDvb29AoFAqVQ+qkgYhtnt9o6Ojgf/VV5enpeXx+fz517Cafh8Po/Hw+VytVotm81+8HSi0WhPT4/BYFAoFA9+YeGYkwqHh4d///vft7S0/PCHP6ysrBQKhZlMZmJi4vjx46WlpTt37mQwGBiGdXV1/fa3v21sbEQQhCTJl156adeuXatXrxYKhRAEtbe3Hzly5MqVKyKRCOyWx+MVFhZ++9vfrqioEIlEMAxnj0iSZCwWGxkZOX78+NWrVycmJkiSRBDkwIEDu3fvtlqtQPcPZWxs7I9//KNer3/22WfnRYU4jvf09PT19dXW1nK53IaGBo1Gs3fvXgRBTp48mZeXt379+kepMBgMXrly5T/+4z8gCIpEIul0mslkggp5++23JRLJQqhwfHy8ublZrVZLJJIHRZbJZFwu13//93/v2rWrpqZm2agQgiAMw1paWm7cuJGTkwMqcSqJROLy5ctnzpwpLi7+7ne/KxQKk8nkqVOnzp49Oz4+ng2YKCkpWb9+/SuvvIIgCARBo6OjTU1NDQ0NMpnMarVObQ4TiURbW9v777+fn5//s5/9rLCwMJPJ+P3+f//3f7fZbAKBIC8vb45n9OQwmcxnnnlmw4YNMAyPjY3N6LdarfaNN97Yv38/BEEnT54cGhqyWCx79uyBIIjL5bJYrIUocHFxcUFBAYIgj7lXKWGuKhSLxS+99FJfX9+dO3fkcvnUWz+TyYRCoebm5pUrV9bU1Oh0OgaDQRDE1q1br1y5MjAwMDY2plKpIAhCUZTH40mlUqBCgiDy8/Nv376NYVgmk5mqwvHx8aGhIalUumPHjuLiYpFIRJKkQCCoqqoKh8MOh8NkMqXT6VOnTl26dGlkZITP569fv/7ll19Op9ONjY2/+c1vOBxOKBR68cUXORzOmTNnvvjii2g0WllZ+fLLL69evTp7oHg8brfbW1tbV6xYUVpaGgwGT548aTAYysvLVSqVw+H48ssvN27cCA6al5d39uzZ8+fPCwSCWCy2d+9eHMe9Xm9DQ0N3d/fY2NiBAweeeeYZvV6f3T+CIBwOh8PhQBDE5/O5XC6fz5dKpRAE+Xy+Cxcu2Gw2CIJgGN6xY4fJZLp79+57770HfltZWXnw4MG8vDyHw9Ha2jo4OAhuTrlcXl9f/9xzz8lkMrfb/emnnzY3N8disdzc3Ndff72wsNDpdN69e1cul1dWVvb29n755ZfgKOBXMAwfO3bs4sWL4+Pjfr9/+/btAoHgzJkzjY2NDofDaDS+8sora9euTSQSLS0t165dA8Wrr69ft24dOJFZM1cV8vn86urqQCAwOTk5ODi4cuXK7L/i8bjL5QqFQhaLJTc3F4gJQRCDwaBSqQYGBgYGBsRi8YP7TKfTsVgMRVEURad2xziOj42NjY+PW63WwsJCoHgYhjkczoYNG/x+v0wmi0QiN2/eHBwcVKvVOp0uGo0CJeXk5Gg0GpPJJBKJ9Hp9NBrt7e3t6ekpKSlJJBLBYPDMmTNKpRKM8MBuGQyG3W5Xq9X5+fmRSKSnpycWi+Xk5IjFYo/H43K5UqmU1+u12+0ajcZgMGi1WqlUCs4UhmG32y2TyUpKSlAUvXbtmkQiEYlED3YXD5JMJoeGhu7du7d+/XqtVstisbq6ulpaWqxWq0QicbvdwWCwpaVFp9OFw+EbN24MDg5u3rx57dq1AwMD3d3dOTk5FRUV165di8VihYWFKIpmMpmuri6pVBoKhex2eyqVcjgcPT098Xi8uroagiC/3z86OmowGIxGo0qlslgsWq02mUwODAyAkVJ5eXkikThx4oRQKBQKhWBEW1dXp9VqFQoFaDvmwlxVyGQyVSqV1WodGBjo7OzMy8vLhoqlUqlgMMhgMAQCwdRBBpPJ5PP5LBbL5XKl02kIgoLBoNvt/vzzz4HmQqGQy+UqKSmRyWRTG0IcxwOBQCwWKy8v53K5CIIEAoGRkRGHwwFBEBhQp1Ipv9+fn5+/evXq3NzcoaGhf/mXf/F6vcXFxatXr3Y4HHq9vrKycnx8vKurSyQSffOb30RR9PPPP7fZbAMDA1KpFKgQnBeTyYzFYqFQKJVKyWSyVCoVj8fD4fDk5KTZbJbL5RMTEwiCCIXCjRs3er1ejUazceNGBEEQBMFxvLCwcMuWLcPDw//2b/82OjoajUafRIUQBBEEIRKJtm7dCm6S1tZWpVL5zW9+U6lUdnd3NzU19ff3p1IpkiSj0Sibza6vrzeZTMeOHRseHh4ZGSkqKmpvb1+xYkVtba1KpbLb7QMDA1ND+Nxut9frLSgo+MY3voGi6IULF8RisVKp3LBhQ0tLy/PPP7969WoMw9rb21Op1P79+4uKiu7evfuLX/yio6OjuLiYIAg+n79169bi4uJ5Gb/OVYUAq9U6MjIyODjY1dWlVqu/4pAMhkAgyM5FIAgaGRk5f/78iRMnSJJMJBIKheK555579913lUoliqLTfs5kMmUyGfjcbrd/8sknv/3tb9Pp9Jo1a/7qr/7q61//+p49e6LRaCqVmpycxDCMz+dPm2in0+mJiQm3211UVBSNRvl8vkqlMhgM2bsC+r8mlsViBYPB8fFxBoNRWlrqcDii0ej4+Pjg4GBVVdXUU3gQg8GQk5PD5/MNBoPBYJjR1eJwOFKpVCwWoygqlUo3b95cXV0di8X8fn8ymZxaJzk5OQaDQafTcblck8mEYRgMwwiC8Pl8cNPyeDydTldUVISi6OTkZLYOWSxWOp32eDxsNnvjxo0cDocgiFAoBL5AkmQ8Hvf7/evWrcvJyVEoFPn5+VVVVQ6HQ6PRcDgcmUwmFosfXMGYHfOzF4FAsGnTppaWlitXrmzfvp0giBn9vLi4eN26dfv27ctkMo2NjcPDw1VVVdMawizJZNLtdmcyGQiCysrKDh8+/NZbb/X09LS2tkIQlEqlxsfHf/rTnzY3N/v9/kwmE4lEpo4TsgwMDPzmN7/hcrkwDKdSKaVS+eqrr4LdQhCEIAibzbZaraFQaHh4mMViKZXKYDCYSCRSqVQymXzoKtJUJBLJQ8cbTwKbzRaLxRKJBAiup6fnd7/73SeffAJBUCaTMRgM27dvB98UiUQMBmNqV4MgiFgsfvXVVz/66KMPP/wwHA6vW7fuH/7hH8xmc/Y7BQUFYBT44x//GIbht956a9euXbm5udkv4DiOYZjX69XpdNki6XS6iYkJCIJYLJZIJMoWb+7MjwphGDYYDE6ns7293WazBYNBCIK4XK5arU6lUqAbzV6SRCLh9XrD4bDFYgHVx2KxpFJpTk4OBEGbN2++dOnS5cuXi4qKCgoKpi6pMBgMtVotlUq7u7tra2t5PB6LxZLJZBKJJBAIcLlcgiAmJyc/++wznU735ptvSqVSn893+vTph6rBZDJVV1ebTCbQBfP5/Ly8vKnNGwzDeXl5PT09k5OTPB4vLy9PIpGEw2HQ3iiVysevZYB+edZVmv25y+Xq6OgIhUI/+tGP+Hz+5OTk1LVVGIanjZ4hCEJRVKvV7t27t6qqKhAIRCKRixcvZjIZHMfBF1gsVmlp6euvv75p06Z0Om232zs7O6feVGDyJBKJsqeQTqd9Pl92D3M8u+knO1874vP5JpMpPz+/paXF7XbjOM5ms9VqtdFovHfv3r1791KpFARBmUymo6NjaGhIKBSazeZpSxIIgphMpuLiYgaDYbPZvF7v1GYVzGxycnIGBgZu3rzp9XohCCIIIhaLtbW1ud1u8Pfg4KBKpdq0adO2bdvKy8sxDMvWHQBFUbCortVq6+vrX3zxRavViuP4g024UqnEcdzpdLpcLqFQaDAYksmk1+tVKpWgEZqv2nsM0WjU5/PBMLxz586XXnqprKzs8YNLHMfD4fDly5cZDEZdXd0LL7xQUFDg9XoxDMt+5/79+0NDQyKRaM+ePbt37+bxeBiGgQsEQBCEy+XK5fKhoSGfzxeJRMbGxjo7O2Uy2eMfDcyOeatHFEUNBsP69euvX7+eSCTS6TS42LW1tX/6059sNhsYo6TT6a6uLhzHKyoqFArFg/sRCASlpaWBQOD8+fPFxcVgapn9r1KptFqtd+7caWtri8fjCoUCx/FIJHLnzh2xWAyGR2q12ul0Njc363Q6h8Phdruj0WgmkwGT7v7+/sLCQplMlpOTc/v2baFQyGQyu7q6JiYmdu3alZOTM7WFEwgEYLQEw7BIJGKxWN3d3YlEwmKxcDicqS0Qk8kkSdLj8djt9tzc3Hn0GuBwOHw+P5lMgol2X18faJsfNewBC/stLS29vb0Gg4HL5Xq9XqPRKJfLA4EA+I7H4xkeHiZJ0mq1ptNpkiQVCoVIJMIwDEVRsC4jl8vNZnNHRweYDI2OjmIYZrVaZTLZ0NDQfJ0dYE4qRFGUyWQymUxwPcAzj3379p0/fx58yGazN2zYoFKp3n///R/96EfgV3/zN39z4MCB7FgNRVEWizV1HVUul5eVlZ06daqjo0OtVk9VIZvNXrlypdVq/eijj37+8593dXVBEMRkMg8fPvzyyy+bzWYMw+rr699666333ntvxYoVu3bteu211wQCQTweB6sMv/jFLwiC2L9/f1VVVV9f33e+851gMFhdXf36669v3rx52gny+XylUgkuiVgsZrPZYIJvsVgYDAaO4wwGg8ViMRgM0Hm1trYGAoFvf/vbDAaDwWCAPgvUA5PJfFQXlt0J2IRhGMweQK1qNBqz2Xzp0qUDBw6AlW2LxeJ0OpPJJARBoOrAN8Hl4HA4CoVix44dhw8fvnbtmlQqra2tfffdd3NycsLhMPj+6tWrQ6HQxx9//I//+I8QBL3zzjtms1mlUk1MTMhkss8//zwWi+3fv3/Lli1Op/PXv/51b2+v1Wr9p3/6pzVr1sRiMSaTyWazpw0D5sLj3sE7derU499+SiQSGIaBOS8YqIJnkdFolMfjZUcVyWTS7/dnb0Qwksuuc0aj0Xg8zmAwwJot9H9Pij0eD4/Hm7bKk/1CIBAIBALgSoBRGmirCIJIJBIulyuZTHI4HNB5MZlMsLITiUQmJyfBvAFBkGAwGAgEcBzn8XgSiUQikTx4jtniSSQSkiTD4XA6nRaLxeC2iUajiURCIBAwmcxAIBCPx1ksllwuDwaDLBaLy+UymUyCIHw+H5vNfnC2DgArQSwWC4xfM5lMNBpNp9MymQxUIJgdRyIRMC1gMBjpdFoul2cymVgsBsOwRCKBYRjDsGQyyWAwhEJhIpHweDygbePxeCqVisViJRKJWCzGYDD4fD6GYcFgEHTT2doDD6Li8bhAIJBIJNkqSiaTbDYbPBYHoQLJZFIulyMIMgstggnT4cOHs+/gQeQjgCDo1KlTj/ovDc2sCYVCRUVFR44cyX5CR3bRUA+tQhrqoVVIQz20Cmmoh1YhDfXQKqShHlqFNNRDq5CGemgV0lAPrUIa6qFVSEM9tAppqIdWIQ310CqkoR5ahTTUQ6uQhnpoFdJQD61CGuqhVUhDPbQKaaiHViEN9dAqpKEeWoU01PMV3gzpdNrhcDQ1NW3YsEGn083RsnMqfr+/ublZIpEUFBQolcqHfqelpcXpdCoUitraWmBNOe0Ldrt9eHg4NzfXYDBMtbzx+/3t7e0kSQLH6Xl0Eejt7QVFKi0tzfpJEATh9/vPnTt39+7drPmaTqerqampq6vjcrnTdtLc3IyiKDD2fMyxSJL0+/0XL15sa2sDBlQbNmyoq6ubaq71IDiOB4PBc+fOFRcXWyyWJ3RMnEogEOjs7MQwbNOmTfNbe4/iK9pC4JZ++fLliYmJqW46cwfDsLa2tr6+vuxlmwpBEOFwuL29/dq1a3fv3o1EIuTDPCTcbve9e/fcbnfWdxAQjUY7Ojo6Ozvnt8wQBI2NjXV0dAwPD091YCJJMhwOt7S0ALlkMplMJmO328EJPriT/v7+wcHBh554llQq5XK5zpw5093dDXx2MplMb29vS0tLf3//NP+nqQDjnqamJrvdnkgkZnGOGIZ1d3e3t7cnk8mHVvu8MwOfGpIkI5FIJBJBURRYA3K5XJlMJpPJ0uk0sLlAEMTn8zEYDGADwmAwEolEJBJhs9nAbiYSiaRSKRiG/X6/2+0mSXJyclKn000z3U+n08PDw+BYOI47HA6hUDg7qzKSJH0+XyaTSafToEWRSCQymYzD4cTjcZCrIh6PJxIJPp+vVqvZbHYikYhGo8B0H0GQWCwWiURABgOv1+tyudhsdiAQUCgUU+11uFzu1q1b9+/fDyzwzp0719bW1tLSUl5ePtOSA1nfvHnzyy+/fPHFF5977jm5XA5B0IkTJ9rb24PBoFqtFgqFPp8PRVE+n89ms3EcB5swDHs8nkAg4HK5vF4vh8MB9Y9hGLATAb8lSRJ8AqxKgYtzIpGQyWQ+n8/r9fr9/rGxMWC+vdDN4QxUmMlk2trazpw5I5VK/+d//mdiYmL16tVvvPHGwYMHJyYmPvvsM+AH98tf/lKr1R46dGj//v0KhaK7u/vChQtFRUXA+PHq1av3799HUdTn833wwQcwDI+Pjx86dKiysnLqsZLJZH9/v1ar1Wg08Xi8qakpPz9/Fs70JEkmk8mjR49OTk6Ojo5++umnEAT95V/+5aFDh1asWHHnzp2zZ8/iOH737t3Ozs6ampp//ud/tlqtPT09ly9f1ul0zz33nEgkam9v//LLL1944QWfz/f73//+9OnTSqWSwWDs3LkzazL5ICaTyel0TkxMAJOXGQkRx/GJiYk//elPX//61ysrK7O5YbZt24ZhmNvtvn//fmFh4dGjR8VicV1dXX5+fjgc/vWvfy2VSvV6/alTpxobG1tbWycmJtavX9/Y2FhYWNjc3Gyz2Tgczrvvvvv8889nMpkrV67cunXr7//+7+VyucvlunHjRldX12uvvfa73/2uoaEhHA57PJ4f/vCHubm5C5RzIMvM2kIcx+PxOI7jP/vZz+Lx+N27d5uamjZv3pzJZIC7Y21t7cmTJ/v6+vx+/7Vr17Zv347jOPBvJEkShmGCIHAcNxqNlZWVDodDqVTW19dbrdapBwJ+PIODg6tWrdLr9WNjY01NTaFQiMPhzMIyEBQ7GAwWFxefPHkSDHPb29vVanUikThz5syGDRuAu/WNGzeuX7/O5XJJksyWGZQnk8kQBLFq1apwOKzX641GY319PWifHoXD4QD+5iwWa6ZtIYZhk5OTkUhEr9dPzfjC4XAkEsno6GhXV1d+fj7oprOdJjCiNZlMr776aigUqq6u3rx5M0mSwJV/w4YN+/btGxkZaWxszM3NValUOI4D2zgAjuM4jgsEgl27djEYjEAg8Nprr2VTJy0oM76oLBbLYDDU1NQgCJLJZK5evRqPx0FHIJVKKyoq6urq9Hr9uXPnRkZGgsHgQ232eDyeVqs1mUx6vd5gMEwbQQOPr2g0ClwGU6kUk8l0u91isXjWFo5isbioqGjz5s3j4+NgXJVMJmEYFggEhYWF1dXVYBje3NzscrkedetLJBK9Xm82m81ms0ajmWYmlkgkmpqa7t+/D8YeJEkWFRVVVFTMwnYXx/FUKoXj+LQbD0EQiUTC4/HC4fCjRmx8Pl8gEKjVaovFotPpvF4vgiA6na6ioqK0tHRoaKizs9PpdD70HEFmA3BReDxeQUHBkpidPAiXyy0sLASnCiy2wec8Hk+v1wMXb41GAywDo9HoLIa3GIYNDw/39fVdvXq1sbHxypUrdru9t7cXjOFmh0KhAPNoqVQql8vBvJXBYBQUFBQVFcnlch6Pl5+fD0aK0+Y6TwhBEJFIxOVyjY6Ojo6OApdzn883v2N8Lpf74KT78SAIUlZWptVqBQKBQqHQ6/WRSCQej89XkebOjNtCBoOhUCgYDMa0mgVejuDWAd3uQ6sedG2P2T+YTNy9e/fWrVutra0gaRlwt62oqFCpVLNz9Obz+Q9a8sMwLBaLuVwuSApCEMSDZSNJEvTIX6kkHo+3bdu27OzEbrc3NjZ+/PHHZrM5m8DiCUEQBEVR0NtMLRJJkqAPnTZjyPanDy0kOE3Qcj/q0jzUUHnRmLdV60QiEQqFQE+BYVgoFIrFYtO+QxCE2+1+/F0Yj8cHBwf7+vp+/vOfX7x4saWlpamp6aOPPgIN5ONXN2YKQRAejyccDoMBVjAYDIfD0xZ30uk0SHAy0/ZMLpeDpAzBYPAxCysPBXjI8ng8l8sVjUazn6dSqeHhYQzDSktLp441wcJWOBwGtqLTIEnS4/HEYjEcx2OxmMfjyaYyyBKJRLI2p4vPvKkwFou5XC673U4QBPC7ValUwO7T6XSOjIz4fL5gMNjb2wuWSx5FIBDweDwQBJWUlOj1eqVSqVartVotl8t1uVzZjB3zArB6HxgYCAaD0Wi0s7MTzMrZbHY8Hu/q6gqHwz6fr7+//969ezNtKkKhkM/nS6VSQqFwpu03g8HQaDR1dXUNDQ3ZnAkQBF26dGlgYEAgEJjNZtAWulyukZGRdDo9ODg4MTHx0DucIIj+/n4w3XG73S6XS6PRiMViDMPA4AHDMKfTCZIXUcK8uatzOJxkMnnjxo2rV68mEgmtVrt69WqxWGwwGPR6fVdX1y9/+Uuj0YiiKOgagBf05cuXgZ18Nkecy+UKBAI5OTnABBf6vyx5JpPJbreDOc18patEEEShUAwNDR05ciQWi6VSKZB7IpPJWCyWL7744j//8z/1ej1Y0QRXncvlhkKhP/7xj2q1urS0dGovD6aiYBYFQVAmk2Gz2TU1NSB5zowKBkyCq6qqfD5fZ2dnR0cHuAdgGM7Nza2oqADmx2VlZdeuXTtx4sTNmzdBJjBgNw18p2/evAlOEBSmoaEBNPmVlZVFRUUKhcJoNCoUig8++ACkP8mOGcBORkZGTp8+vW3bNpBzeF4q/FF8hQpB7qHy8nKpVAoyzxQWFmaLpVarS0pKBAJBKpXi8/kSiYQgiLa2try8vOLi4jVr1rDZbL1ev2nTplgsZrfbORxOVVUVDMMKhYLH45WUlLS1tYVCoamdDgzDWq22qKhIIBBk3cn5fP7atWtbW1thGH6S3o3D4YBcaEwmE0XRvLw8LpcL5tdMJhM81+JwOCiKlpSU8Pl8p9MZDAbr6uqqq6tVKlUmk6mqqurv7+/t7WWz2RaLxWq1gjVCkF6vv7/f7/dPTRQFJjc+ny/7sEShUGzatGnr1q2zy4LLZrPz8vL+4i/+oqGh4fr16z6fD4Kgbdu2rV+/vqCgAHxn7dq1Xq/30qVL9+7d27VrV1VVlcViAdndysvL+/r6AoEAWOgxGAzg2aPRaNy9e3dubi6Xyy0rKwsGg0ePHoVheNWqVWazORaLsVgsFEWNRqPT6RwbG1ucxydzclfP4nA4Tp48SRDEoUOHxGLxIsztAc3Nza2trWvXri0vL59pQrZAINDe3t7Y2Lhnz57KysrFTNZ65MgRYLRfVFS0oAfKZDI9PT0ffvjh9u3b165dCzKwUs6D7up0TA0N9czPuFChUGzfvp0kSR6Pt2gNIQRBBQUFcrlcJpPNYqTI5/PLysrkcrler1/occ80QN7QbGaNhQP0rYcOHdJqtbNOyrcIzI8KQb6dednVjJDL5Y9/jPYYWCyWSqWipJMymUyLcyCwUjg1+/jShO6RaaiHViEN9dAqpKEeWoU01EOrkIZ6aBXSUA+tQhrqoVVIQz1fsWp9//79GzdutLa2QhBUUVGh0+kCgUBzczMEQWVlZSD9uM1mI0myuLjYZDJhGGaz2TKZTGFhocViSSQSNpstmUxaLJbCwsJ0Om2z2WKxmMlkKi4uJgjCZrNFIpGcnJyysjIIgm7cuBEMBkF4OgRBN2/e9Pl8arUarLvevn3b4/EoFArwqtSdO3dcLpdUKq2uroYgCASyi0Si2tpaGIa7u7tHRkb4fD54l7mvr+/+/fscDqe2tpbNZg8ODg4MDDCZzNraWh6PB2K5EQSpra0VCoUOhwNkoa+pqZFIJODtTwiC1q1bJ5fLJyYm2tvbIQhas2aNSqWanJy8desWBEErV67UarV+v7+lpQWCoBUrVhgMhlAoZLPZIAgqKSnJzc2NRqM2mw3H8aKiIrPZHI/HbTZbKpXKz88vKChIpVI2my0ej+fl5VmtVhzHbTZbNBo1Go2lpaUQBNlstlAopNfry8vLIQhqaWnx+/0ajWbVqlUQBN26dWtyclKpVK5duxaCoPb2dpD7vaqqCoKgjo6OsbExsVhcW1sLQVBXV5fD4RAIBOvXr0cQpLe31263c7nc6upq8Bqr0+nkcDj19fUYhg0MDIyMjDAYjPr6+lQqNTg4aLfbIQiqr6+HIGhoaGhwcBCCoOeff37NmjVqtXqeVZhOp6PRqNfrhSAoEonEYrHsZjgczm6CNxdjsYqTd5IAAA8RSURBVBiGYT6fL51Oq9XqWCwWj8d9Pl8ikVAoFLFYLJ1O+3w+DMOkUmksFgMvk4dCIaFQCEJi/X6/3+/n8XhgMxAIeL1eFos1dRNF0ambEASBzWAw6PV6s+nTwWYymQTZ0UOhkNfr5XK5INgTbLJYLJAsPRwOgz2D5OpgE4KgaDTKYrEikUh2k8vlTt0UCATZzUgkIhaLH19dGIZ5vV4cx7VabSwWi8Vi4JUAlUoFQst8Pl8sFpPJZKCcPp8P7DZbP4FAgM/nZzfBu55TK4TJZE7dhGF4av0QBDF1M5VKgVMGFcLj8TAMAwG/oLri8XgsFgObTCYzHo8nk0nwZVDzIOt2dnOm8bz/y6MSekN0rniahYHOFU+zFKFVSEM9tAppqIdWIQ310CqkoR5ahTTUQ6uQhnpoFdJQD61CGuqZN2+Gx0CSZDqdTqfTBEGwWCwmkzk7V9Zp+wRmKw/1u54jwNgvnU4jCMJkMoER1Nz3SRAEsGab+34gCFrMF6gXmsVQocfj+eyzz06cOOHxePbt2/e1r30tPz9/LjskSTISiXzxxRd8Pn/Lli2zNjV8FL29vX/4wx+OHz9uNBr379//wgsvPMr//cnp6ekZHh4WCAQbNmyYy4un3d3d3d3dEATt3bt3joJeOizsaZAkGYvFzp496/V6d+zYwWaz7Xb77du3GQzGHN+GJAgiEAh8pQ/dLBgaGgLG4m+//XYsFnM4HJcuXdq5c+cc/STj8TgwHCPnYLjR2dl59OjRkZGRZ555Zi77WWos7LgQOJoNDAzweLyXXnpp//79er3ebrcPDQ3NMvhi4XE4HB6Px2Qyvfbaazt37iRJsqurC8QNUVgqDMNaW1ttNpvb7Z77eGapsRgqZDAYcrlcoVCw2eyCgoJIJDI2NjbvOSDmBYIggsEggiAWi4XJZCqVSpFIBJI+UKvCWCzW0dERiUTWrl1bU1NDYUkWggXvkYEKeTwemJQolcpEIhEIBFKp1EydcRcBkI2CIAiFQgHDMIvFkslkXq93Fi6a84tSqXzjjTcgCGptbb19+zaFJVkIFlaFOI673e7Z5X5ZfEiSTCaTILCU6rL8ebGwKgTWg8tlKgfDMIqiXC53aY4WnmIWVh8IggBTYTCZBXmUGAwGcLBc0EPPDpAEIJVKxeNxkiRxHE8kEjiOz84Jk+YJWdjZCYIgIpEIZGYDLyWMj49zuVyFQrHQ6YRmB5PJlEgkMAyD6UgsFgsEAjiOq1Sqp29munRYDBWm02mPx+NyuWKxWHd3t1gsNhqNS1OFEARJpVKQ9zCRSIyNjUUiEYFAkPW1plkIFnxcKBKJdu3adeHChR/84AfRaHTlypVbt26dlnJsSVFaWoph2OnTp3fs2CGVSmtra7ds2TI1DRjNvLPgKmQwGODVY7lcDlRYXFw8i6S9i4ZIJCorKyMIQqfTSaVS4D69dCZYBoMBPEFemgPr2bEYlSsUCqurq8G768sCjUaj0Wief/55qgvyELRarVarpboU88xyHXGDRIp8Pn+5dJQsFovH4y1OcsNlx1LpaGYEDMNCofBrX/saDMMcDofq4jwRJSUlhYWFIMEd1WVZcixLFUIQhCDI8lrDA3GKVJdiibJce2Sap4nFaAuTyeTY2BhIZ2UwGAwGw9zjUtPp9MTEBIqiKpVqISawBEHE43Gn0ymRSBQKxdy7UZAkFeT1ncXQEMSWDwwMTE5OggzUJpMJJEefY8GWAgveFpIkOTY2duzYsb/7u787cODAhx9+ODg4OMfgQpIkMQz7/PPPL168+GD+27kDnpr09fV98MEH169fn5eE1v39/ZcuXWppaZnduafTabfb/atf/erNN9/8zne+c/ToUb/fv2RjNGfKYsQX/uEPfyAI4qc//enp06e5XO7Nmzd7e3sX9LhzJBKJ3Lp16wc/+EFfX99SiGzAcdzpdP7qV78qKCh4//33f/KTn6AoeuzYMbfbTXXR5ofFUCGGYTKZrLy8vLi4uKCgwOPx2O32BxNFLxEmJibOnTvX0NBQU1Mjl8uXwno1juPRaHR0dDQ3N7e4uNhqtebk5ABP0aVwk8ydhVUhiHJFUVQsFotEIiaTmZubi2GY2+1estXHYDAkEklhYeGmTZvkcvlSWFgBXpfpdFqhUPD5fIFAoFarfT5fIBB4aHL4ZcfC3ujgHSUIgthsNnhlUywWp1KpaDSaTS681FAoFFu3bq2rqwMeulQXB4IgKJVKRSKRTCbD5XKZTCZBECBMPR6PL9lqnBEL2xbiOD45Ofl03K8UkkqlQqFQJBJ5aqYj01hYFYKVlOXyeGPJwmKxwJBmKQwPFoIFjy+USqXgfY5MJkOSZDAYZLFYQqGQfpDw5LDZbKFQiKIo6IIzmQxYPOJyuUs2THNGLEaUK/CMD4VCqVRqeHiYz+drNJqno/oWByaTyefzWSzW5ORkNBqNRCIul0upVM4uPfkSZDGiXCUSSSAQuH37tkwmGxoaMpvNJpNpiQz8lwUoigqFwry8vOHhYfByltPprKysVKlUT0eXsuBtIQh+QRDknXfeefHFF+Px+Lp165ZyrPUSBEVRg8Hwt3/7t4ODg9/61re+//3vEwSxb9++WeS3WZoseIMEw7BGo3nllVe2bt2aSqW0Wq1Go1n6bxKxWCyj0fitb31LJBIthbf3GQyGTCZ7++23X331VQRBVCqVWCxe+tX4hCxGt8hisXJycnJychbhWPMFgiBcLjcvL4/qgvwvMAwzmcw5ep0tWZbr4AxcEi6Xu1zGlzKZLDc3l8fjPR1RMPPL8riE0wCWD0vzvZBHYbFYLBYL1aVYojwlAwuaZQ2tQhrqWbweORAIdHZ2ikQik8kkkUjmsivwMKajo4PNZlut1nlfuR0fH29ra7t165ZMJlu3bl1ZWdncg8PHxsZ8Ph+Hw8nPz5/F3JYgiEQicenSpf7+fiaTuWLFipqaGhaL9XSMMhdJhX6/v7W19dixYyDv9RxVCEFQIpG4desWWMudXxUGg8F79+5dvHixt7cXRAAhCLJq1ao5rg+Pj4/39/eLxWKz2TxTFZIkGY1G792719TUNDQ0xGAw/H6/VCrNz8/n8/lzKdUSYTEi/uPxeHt7+/Hjx0+fPg2yYi9luru7Ozo6NBrNyZMnDx8+HA6Hz549Gw6HKXTRBC5TH330UX5+/r/+679+//vfZ7FYwK3+6XC3XvAo11Qq9emnn169etVgMBw8eFAkEi3oEedOIBBgMBigo9fpdEKhEMOw8fHxebdxf3JwHI/H49Fo1Gg0SqVShUJhsVi6u7vdbvfTETW3sCoEPjW1tbV79ux55plnlv5yP3AUJklSrVbDMMzlcmUyGYPBoLbVAXHBBEGIxWIOh8PhcKRSaTKZDIfDtAqfCBRF8/PzKyoqcnNzF/pYcyeVSgUCgXg8Dqw8UBRls9kIgszLa3izBggukUgwGAwURUEuIAiC0un00xH3uqRbpkUGmLcmk8ml9k4MjuOpVCqdTj8do8AHWZbPThYIGIbZbLZMJoNheNr1pnZBhM1mSyQSoVA4bTzzdCzTQHRbOA0WiyWRSBAEAWl2ksmk3+9PJpNKpZLCS85ms8GCZSQSAU01yEIgEAiejrcpaBX+f8AwLJVKCYIYHBxMpVIejycUCnE4HK1WS6EKQcIYLpc7Pj4eDoeDweDIyEheXh5IZERVqeYRukeeTm5u7vj4eGdn53/9138lEgkEQcrLy2dnLjNfoCgqk8nq6ursdrvL5SIIIhaLbdmyRa1WPx3vQy1eW8hms7VarVwuX+K3b15e3qpVq0Qi0ZEjR2w2m8Vi2bRpE7XulyCsde/evQiCXLx48caNGxqNZuvWrVKplKoizS+L1xbq9frXX38dWg5jaqvV+r3vfe+dd96BIAhBkKVQYOBv8c4773z3u9+FIAiG4SW+8jojFrVHXgqX80mAYXhpFvVpUt5Uluu4kMvl1tXVsVis5TJJNBqNIpGIxWI9rUqaC8tShWBhr7y8nOqCzAC1Wv3UvDI379D3JQ310CqkoR5ahTTUs3jjQr/f39HRIRKJzGbz3CP+E4lENuJ/ISYowFvn1q1bRqMxPz9/7q46TqfT5/Ox2WyQ9WSmPwcR/xcuXOjr62MymeXl5bW1tWw2e2nO5WfKIqnQ5/O1tLQcO3Zs/fr1Mpls7hH/yWTy9u3bQqHQbDbPuwqBlfmVK1cuX75cX18/LxlMXS4XiPifxXsnJElGIpGOjo4bN24MDw8zGIxQKCSVSgsLC+mI/ycC+PG3tbWdOHHi7NmzC2HJP79kMhmPx9Pc3Pzhhx86HI6l4L+N47jL5fr4448tFsuPf/zj733ve2w2+9SpU263++mI9VqkiP9r164tl4h/p9N58uTJ48eP//Vf/7XJZFoKDncg4h/DMKPRKJFI5HK5xWLp6uryeDxPR6z1YmSm3bhx49q1a30+X1NT09Jfs1UoFPX19eXl5Xw+/86dO0th4JVMJrMR/1wuF0EQiUSSSqVAxP9yWbd/DAs+LkRR1Gw2QxB0//79hT7WvCAQCAoLC41G48jIyBK5Z4DgQMQ/giB0xD8NBRAEkU6nn+KIf1qFywDgri4UCqcND5Zs1MVMoVW4DMhG/Eej0WkR/0s8WPMJoVW4DMhG/I+NjYVCoUAgMDIyYjablUrl06HCZRlT8+cGiqJyuXzTpk12u93pdILXsp599lmVSkVH/M8MNput1+uXy+0LHIWBIwflVxpBEKVSuXv3biaTef369du3b+t0umeffZaO+J8xer3+4MGDi3a4OQLc1d966y2qC/K/ZCP+qS7IgkCPC2moZ7mOC7lc7saNG5dRxH9ubq5YLKYj/h/KslQhiPgvKyujuiAzQKVSqVQqqkuxRKHvSxrqoVVIQz20Cmmoh1YhDfXQKqShHlqFNNRDq5CGemgV0lAPrUIa6qFVSEM9tAppqIdWIQ310CqkoR5ahTTUQ6uQhnpoFdJQD61CGuqhVUhDPbQKaaiHViEN9dAqpKEeWoU01EOrkIZ6Hvc+clNTUyKRWLSi0PyZEI/Hw+Hw1E8eqUKLxdLQ0NDQ0LDwpaL5s4PH4wmFwuwm/CiTWp/Pt1hFovlzZKoF6CNVSEOzaNCzExrqoVVIQz20Cmmoh1YhDfXQKqShHlqFNNTz/wBSJTSe2rGZ7AAAAABJRU5ErkJggg==;" vertex="1" parent="1">
                    <mxGeometry x="25" y="454" width="215" height="192" as="geometry"/>
                </mxCell>
                <mxCell id="105" value="INPUT B" style="text;html=1;align=center;verticalAlign=middle;resizable=0;points=[];autosize=1;strokeColor=none;fillColor=none;" vertex="1" parent="1">
                    <mxGeometry x="370" y="300" width="60" height="20" as="geometry"/>
                </mxCell>
            </root>
        </mxGraphModel>
    </diagram>
</mxfile>